<?xml version="1.0" encoding="UTF-8"?>
<svg xmlns="http://www.w3.org/2000/svg" xmlns:xlink="http://www.w3.org/1999/xlink" width="102pt" height="54pt" viewBox="0 0 102 54" version="1.1">
<g id="surface1">
<path style="fill:none;stroke-width:0.4;stroke-linecap:butt;stroke-linejoin:round;stroke:rgb(70%,87.6%,85.2%);stroke-opacity:1;stroke-miterlimit:10;" d="M 200 680 L 192 688 " transform="matrix(1,0,0,-1,-101.5,690.5)"/>
<path style="fill:none;stroke-width:0.4;stroke-linecap:butt;stroke-linejoin:round;stroke:rgb(70%,87.6%,85.2%);stroke-opacity:1;stroke-miterlimit:10;" d="M 176 688 L 192 688 " transform="matrix(1,0,0,-1,-101.5,690.5)"/>
<path style="fill:none;stroke-width:0.4;stroke-linecap:butt;stroke-linejoin:round;stroke:rgb(70%,87.6%,85.2%);stroke-opacity:1;stroke-miterlimit:10;" d="M 176 688 L 168 680 " transform="matrix(1,0,0,-1,-101.5,690.5)"/>
<path style="fill:none;stroke-width:0.4;stroke-linecap:butt;stroke-linejoin:round;stroke:rgb(70%,87.6%,85.2%);stroke-opacity:1;stroke-miterlimit:10;" d="M 168 680 L 160 664 " transform="matrix(1,0,0,-1,-101.5,690.5)"/>
<path style="fill:none;stroke-width:0.4;stroke-linecap:butt;stroke-linejoin:round;stroke:rgb(70%,87.6%,85.2%);stroke-opacity:1;stroke-miterlimit:10;" d="M 160 664 L 168 648 " transform="matrix(1,0,0,-1,-101.5,690.5)"/>
<path style="fill:none;stroke-width:0.4;stroke-linecap:butt;stroke-linejoin:round;stroke:rgb(70%,87.6%,85.2%);stroke-opacity:1;stroke-miterlimit:10;" d="M 168 648 L 176 640 " transform="matrix(1,0,0,-1,-101.5,690.5)"/>
<path style="fill:none;stroke-width:0.4;stroke-linecap:butt;stroke-linejoin:round;stroke:rgb(70%,87.6%,85.2%);stroke-opacity:1;stroke-miterlimit:10;" d="M 176 640 L 192 640 " transform="matrix(1,0,0,-1,-101.5,690.5)"/>
<path style="fill:none;stroke-width:0.4;stroke-linecap:butt;stroke-linejoin:round;stroke:rgb(70%,87.6%,85.2%);stroke-opacity:1;stroke-miterlimit:10;" d="M 192 640 L 200 648 " transform="matrix(1,0,0,-1,-101.5,690.5)"/>
<path style="fill:none;stroke-width:0.4;stroke-linecap:butt;stroke-linejoin:round;stroke:rgb(70%,87.6%,85.2%);stroke-opacity:1;stroke-miterlimit:10;" d="M 200 648 L 176 640 " transform="matrix(1,0,0,-1,-101.5,690.5)"/>
<path style="fill:none;stroke-width:0.4;stroke-linecap:butt;stroke-linejoin:round;stroke:rgb(70%,87.6%,85.2%);stroke-opacity:1;stroke-miterlimit:10;" d="M 192 640 L 168 648 " transform="matrix(1,0,0,-1,-101.5,690.5)"/>
<path style="fill:none;stroke-width:0.4;stroke-linecap:butt;stroke-linejoin:round;stroke:rgb(70%,87.6%,85.2%);stroke-opacity:1;stroke-miterlimit:10;" d="M 168 648 L 168 680 " transform="matrix(1,0,0,-1,-101.5,690.5)"/>
<path style="fill:none;stroke-width:0.4;stroke-linecap:butt;stroke-linejoin:round;stroke:rgb(70%,87.6%,85.2%);stroke-opacity:1;stroke-miterlimit:10;" d="M 168 680 L 192 688 " transform="matrix(1,0,0,-1,-101.5,690.5)"/>
<path style="fill:none;stroke-width:0.4;stroke-linecap:butt;stroke-linejoin:round;stroke:rgb(70%,87.6%,85.2%);stroke-opacity:1;stroke-miterlimit:10;" d="M 176 688 L 200 680 " transform="matrix(1,0,0,-1,-101.5,690.5)"/>
<path style="fill:none;stroke-width:0.4;stroke-linecap:butt;stroke-linejoin:round;stroke:rgb(70%,87.6%,85.2%);stroke-opacity:1;stroke-miterlimit:10;" d="M 176 688 L 160 664 " transform="matrix(1,0,0,-1,-101.5,690.5)"/>
<path style="fill:none;stroke-width:0.4;stroke-linecap:butt;stroke-linejoin:round;stroke:rgb(70%,87.6%,85.2%);stroke-opacity:1;stroke-miterlimit:10;" d="M 160 664 L 176 640 " transform="matrix(1,0,0,-1,-101.5,690.5)"/>
<path style="fill:none;stroke-width:0.4;stroke-linecap:butt;stroke-linejoin:round;stroke:rgb(75.8%,79.4%,86.4%);stroke-opacity:1;stroke-miterlimit:10;" d="M 144 648 L 112 680 " transform="matrix(1,0,0,-1,-101.5,690.5)"/>
<path style=" stroke:none;fill-rule:evenodd;fill:rgb(0%,58.8%,50.9%);fill-opacity:1;" d="M 100.300781 10.5 C 100.300781 8.101562 96.699219 8.101562 96.699219 10.5 C 96.699219 12.898438 100.300781 12.898438 100.300781 10.5 Z "/>
<path style=" stroke:none;fill-rule:evenodd;fill:rgb(0%,58.8%,50.9%);fill-opacity:1;" d="M 92.300781 2.5 C 92.300781 0.101562 88.699219 0.101562 88.699219 2.5 C 88.699219 4.898438 92.300781 4.898438 92.300781 2.5 Z "/>
<path style=" stroke:none;fill-rule:evenodd;fill:rgb(0%,58.8%,50.9%);fill-opacity:1;" d="M 76.300781 2.5 C 76.300781 0.101562 72.699219 0.101562 72.699219 2.5 C 72.699219 4.898438 76.300781 4.898438 76.300781 2.5 Z "/>
<path style=" stroke:none;fill-rule:evenodd;fill:rgb(0%,58.8%,50.9%);fill-opacity:1;" d="M 68.300781 10.5 C 68.300781 8.101562 64.699219 8.101562 64.699219 10.5 C 64.699219 12.898438 68.300781 12.898438 68.300781 10.5 Z "/>
<path style=" stroke:none;fill-rule:evenodd;fill:rgb(0%,58.8%,50.9%);fill-opacity:1;" d="M 68.300781 42.5 C 68.300781 40.101562 64.699219 40.101562 64.699219 42.5 C 64.699219 44.898438 68.300781 44.898438 68.300781 42.5 Z "/>
<path style=" stroke:none;fill-rule:evenodd;fill:rgb(0%,58.8%,50.9%);fill-opacity:1;" d="M 76.300781 50.5 C 76.300781 48.101562 72.699219 48.101562 72.699219 50.5 C 72.699219 52.898438 76.300781 52.898438 76.300781 50.5 Z "/>
<path style=" stroke:none;fill-rule:evenodd;fill:rgb(0%,58.8%,50.9%);fill-opacity:1;" d="M 92.300781 50.5 C 92.300781 48.101562 88.699219 48.101562 88.699219 50.5 C 88.699219 52.898438 92.300781 52.898438 92.300781 50.5 Z "/>
<path style=" stroke:none;fill-rule:evenodd;fill:rgb(0%,58.8%,50.9%);fill-opacity:1;" d="M 100.300781 42.5 C 100.300781 40.101562 96.699219 40.101562 96.699219 42.5 C 96.699219 44.898438 100.300781 44.898438 100.300781 42.5 Z "/>
<path style=" stroke:none;fill-rule:evenodd;fill:rgb(0%,58.8%,50.9%);fill-opacity:1;" d="M 60.300781 26.5 C 60.300781 24.101562 56.699219 24.101562 56.699219 26.5 C 56.699219 28.898438 60.300781 28.898438 60.300781 26.5 Z "/>
<path style="fill:none;stroke-width:0.4;stroke-linecap:butt;stroke-linejoin:round;stroke:rgb(75.8%,79.4%,86.4%);stroke-opacity:1;stroke-miterlimit:10;" d="M 128 688 L 128 640 " transform="matrix(1,0,0,-1,-101.5,690.5)"/>
<path style="fill:none;stroke-width:0.4;stroke-linecap:butt;stroke-linejoin:round;stroke:rgb(75.8%,79.4%,86.4%);stroke-opacity:1;stroke-miterlimit:10;" d="M 128 640 L 144 648 " transform="matrix(1,0,0,-1,-101.5,690.5)"/>
<path style="fill:none;stroke-width:0.4;stroke-linecap:butt;stroke-linejoin:round;stroke:rgb(75.8%,79.4%,86.4%);stroke-opacity:1;stroke-miterlimit:10;" d="M 144 648 L 152 664 " transform="matrix(1,0,0,-1,-101.5,690.5)"/>
<path style="fill:none;stroke-width:0.4;stroke-linecap:butt;stroke-linejoin:round;stroke:rgb(75.8%,79.4%,86.4%);stroke-opacity:1;stroke-miterlimit:10;" d="M 152 664 L 144 680 " transform="matrix(1,0,0,-1,-101.5,690.5)"/>
<path style="fill:none;stroke-width:0.4;stroke-linecap:butt;stroke-linejoin:round;stroke:rgb(75.8%,79.4%,86.4%);stroke-opacity:1;stroke-miterlimit:10;" d="M 144 680 L 128 688 " transform="matrix(1,0,0,-1,-101.5,690.5)"/>
<path style="fill:none;stroke-width:0.4;stroke-linecap:butt;stroke-linejoin:round;stroke:rgb(75.8%,79.4%,86.4%);stroke-opacity:1;stroke-miterlimit:10;" d="M 128 688 L 112 680 " transform="matrix(1,0,0,-1,-101.5,690.5)"/>
<path style="fill:none;stroke-width:0.4;stroke-linecap:butt;stroke-linejoin:round;stroke:rgb(75.8%,79.4%,86.4%);stroke-opacity:1;stroke-miterlimit:10;" d="M 112 680 L 104 664 " transform="matrix(1,0,0,-1,-101.5,690.5)"/>
<path style="fill:none;stroke-width:0.4;stroke-linecap:butt;stroke-linejoin:round;stroke:rgb(75.8%,79.4%,86.4%);stroke-opacity:1;stroke-miterlimit:10;" d="M 104 664 L 112 648 " transform="matrix(1,0,0,-1,-101.5,690.5)"/>
<path style="fill:none;stroke-width:0.4;stroke-linecap:butt;stroke-linejoin:round;stroke:rgb(75.8%,79.4%,86.4%);stroke-opacity:1;stroke-miterlimit:10;" d="M 112 648 L 128 640 " transform="matrix(1,0,0,-1,-101.5,690.5)"/>
<path style="fill:none;stroke-width:0.4;stroke-linecap:butt;stroke-linejoin:round;stroke:rgb(75.8%,79.4%,86.4%);stroke-opacity:1;stroke-miterlimit:10;" d="M 112 680 L 144 680 " transform="matrix(1,0,0,-1,-101.5,690.5)"/>
<path style="fill:none;stroke-width:0.4;stroke-linecap:butt;stroke-linejoin:round;stroke:rgb(75.8%,79.4%,86.4%);stroke-opacity:1;stroke-miterlimit:10;" d="M 104 664 L 152 664 " transform="matrix(1,0,0,-1,-101.5,690.5)"/>
<path style="fill:none;stroke-width:0.4;stroke-linecap:butt;stroke-linejoin:round;stroke:rgb(75.8%,79.4%,86.4%);stroke-opacity:1;stroke-miterlimit:10;" d="M 112 648 L 144 648 " transform="matrix(1,0,0,-1,-101.5,690.5)"/>
<path style="fill:none;stroke-width:0.4;stroke-linecap:butt;stroke-linejoin:round;stroke:rgb(75.8%,79.4%,86.4%);stroke-opacity:1;stroke-miterlimit:10;" d="M 112 680 L 112 648 " transform="matrix(1,0,0,-1,-101.5,690.5)"/>
<path style="fill:none;stroke-width:0.4;stroke-linecap:butt;stroke-linejoin:round;stroke:rgb(75.8%,79.4%,86.4%);stroke-opacity:1;stroke-miterlimit:10;" d="M 144 680 L 144 648 " transform="matrix(1,0,0,-1,-101.5,690.5)"/>
<path style="fill:none;stroke-width:0.4;stroke-linecap:butt;stroke-linejoin:round;stroke:rgb(75.8%,79.4%,86.4%);stroke-opacity:1;stroke-miterlimit:10;" d="M 112 680 L 128 640 " transform="matrix(1,0,0,-1,-101.5,690.5)"/>
<path style="fill:none;stroke-width:0.4;stroke-linecap:butt;stroke-linejoin:round;stroke:rgb(75.8%,79.4%,86.4%);stroke-opacity:1;stroke-miterlimit:10;" d="M 112 648 L 128 688 " transform="matrix(1,0,0,-1,-101.5,690.5)"/>
<path style="fill:none;stroke-width:0.4;stroke-linecap:butt;stroke-linejoin:round;stroke:rgb(75.8%,79.4%,86.4%);stroke-opacity:1;stroke-miterlimit:10;" d="M 112 648 L 144 680 " transform="matrix(1,0,0,-1,-101.5,690.5)"/>
<path style="fill:none;stroke-width:0.4;stroke-linecap:butt;stroke-linejoin:round;stroke:rgb(75.8%,79.4%,86.4%);stroke-opacity:1;stroke-miterlimit:10;" d="M 112 648 L 152 664 " transform="matrix(1,0,0,-1,-101.5,690.5)"/>
<path style="fill:none;stroke-width:0.4;stroke-linecap:butt;stroke-linejoin:round;stroke:rgb(75.8%,79.4%,86.4%);stroke-opacity:1;stroke-miterlimit:10;" d="M 144 680 L 128 640 " transform="matrix(1,0,0,-1,-101.5,690.5)"/>
<path style="fill:none;stroke-width:0.4;stroke-linecap:butt;stroke-linejoin:round;stroke:rgb(75.8%,79.4%,86.4%);stroke-opacity:1;stroke-miterlimit:10;" d="M 144 680 L 104 664 " transform="matrix(1,0,0,-1,-101.5,690.5)"/>
<path style="fill:none;stroke-width:0.4;stroke-linecap:butt;stroke-linejoin:round;stroke:rgb(75.8%,79.4%,86.4%);stroke-opacity:1;stroke-miterlimit:10;" d="M 152 664 L 112 680 " transform="matrix(1,0,0,-1,-101.5,690.5)"/>
<path style="fill:none;stroke-width:0.4;stroke-linecap:butt;stroke-linejoin:round;stroke:rgb(75.8%,79.4%,86.4%);stroke-opacity:1;stroke-miterlimit:10;" d="M 128 640 L 152 664 " transform="matrix(1,0,0,-1,-101.5,690.5)"/>
<path style="fill:none;stroke-width:0.4;stroke-linecap:butt;stroke-linejoin:round;stroke:rgb(75.8%,79.4%,86.4%);stroke-opacity:1;stroke-miterlimit:10;" d="M 128 688 L 144 648 " transform="matrix(1,0,0,-1,-101.5,690.5)"/>
<path style="fill:none;stroke-width:0.4;stroke-linecap:butt;stroke-linejoin:round;stroke:rgb(75.8%,79.4%,86.4%);stroke-opacity:1;stroke-miterlimit:10;" d="M 128 640 L 104 664 " transform="matrix(1,0,0,-1,-101.5,690.5)"/>
<path style="fill:none;stroke-width:0.4;stroke-linecap:butt;stroke-linejoin:round;stroke:rgb(75.8%,79.4%,86.4%);stroke-opacity:1;stroke-miterlimit:10;" d="M 104 664 L 128 688 " transform="matrix(1,0,0,-1,-101.5,690.5)"/>
<path style="fill:none;stroke-width:0.4;stroke-linecap:butt;stroke-linejoin:round;stroke:rgb(75.8%,79.4%,86.4%);stroke-opacity:1;stroke-miterlimit:10;" d="M 128 688 L 152 664 " transform="matrix(1,0,0,-1,-101.5,690.5)"/>
<path style="fill:none;stroke-width:0.4;stroke-linecap:butt;stroke-linejoin:round;stroke:rgb(75.8%,79.4%,86.4%);stroke-opacity:1;stroke-miterlimit:10;" d="M 144 648 L 104 664 " transform="matrix(1,0,0,-1,-101.5,690.5)"/>
<path style=" stroke:none;fill-rule:evenodd;fill:rgb(27.4%,39.2%,66.6%);fill-opacity:1;" d="M 28.300781 2.5 C 28.300781 0.101562 24.699219 0.101562 24.699219 2.5 C 24.699219 4.898438 28.300781 4.898438 28.300781 2.5 Z "/>
<path style=" stroke:none;fill-rule:evenodd;fill:rgb(27.4%,39.2%,66.6%);fill-opacity:1;" d="M 12.300781 10.5 C 12.300781 8.101562 8.699219 8.101562 8.699219 10.5 C 8.699219 12.898438 12.300781 12.898438 12.300781 10.5 Z "/>
<path style=" stroke:none;fill-rule:evenodd;fill:rgb(27.4%,39.2%,66.6%);fill-opacity:1;" d="M 44.300781 10.5 C 44.300781 8.101562 40.699219 8.101562 40.699219 10.5 C 40.699219 12.898438 44.300781 12.898438 44.300781 10.5 Z "/>
<path style=" stroke:none;fill-rule:evenodd;fill:rgb(27.4%,39.2%,66.6%);fill-opacity:1;" d="M 4.300781 26.5 C 4.300781 24.101562 0.699219 24.101562 0.699219 26.5 C 0.699219 28.898438 4.300781 28.898438 4.300781 26.5 Z "/>
<path style=" stroke:none;fill-rule:evenodd;fill:rgb(27.4%,39.2%,66.6%);fill-opacity:1;" d="M 12.300781 42.5 C 12.300781 40.101562 8.699219 40.101562 8.699219 42.5 C 8.699219 44.898438 12.300781 44.898438 12.300781 42.5 Z "/>
<path style=" stroke:none;fill-rule:evenodd;fill:rgb(27.4%,39.2%,66.6%);fill-opacity:1;" d="M 52.300781 26.5 C 52.300781 24.101562 48.699219 24.101562 48.699219 26.5 C 48.699219 28.898438 52.300781 28.898438 52.300781 26.5 Z "/>
<path style=" stroke:none;fill-rule:evenodd;fill:rgb(27.4%,39.2%,66.6%);fill-opacity:1;" d="M 28.300781 50.5 C 28.300781 48.101562 24.699219 48.101562 24.699219 50.5 C 24.699219 52.898438 28.300781 52.898438 28.300781 50.5 Z "/>
<path style="fill:none;stroke-width:0.4;stroke-linecap:butt;stroke-linejoin:round;stroke:rgb(81.3%,55.8%,57.8%);stroke-opacity:1;stroke-miterlimit:10;" d="M 136 656 L 144 648 " transform="matrix(1,0,0,-1,-101.5,690.5)"/>
<path style="fill:none;stroke-width:0.4;stroke-linecap:butt;stroke-linejoin:round;stroke:rgb(81.3%,55.8%,57.8%);stroke-opacity:1;stroke-miterlimit:10;" d="M 144 648 L 152 640 " transform="matrix(1,0,0,-1,-101.5,690.5)"/>
<path style=" stroke:none;fill-rule:evenodd;fill:rgb(62.7%,11.7%,15.6%);fill-opacity:1;" d="M 36.300781 34.5 C 36.300781 32.101562 32.699219 32.101562 32.699219 34.5 C 32.699219 36.898438 36.300781 36.898438 36.300781 34.5 Z "/>
<path style=" stroke:none;fill-rule:evenodd;fill:rgb(62.7%,11.7%,15.6%);fill-opacity:1;" d="M 52.300781 50.5 C 52.300781 48.101562 48.699219 48.101562 48.699219 50.5 C 48.699219 52.898438 52.300781 52.898438 52.300781 50.5 Z "/>
<path style=" stroke:none;fill-rule:evenodd;fill:rgb(27.4%,39.2%,66.6%);fill-opacity:1;" d="M 44.300781 42.5 C 44.300781 40.101562 40.699219 40.101562 40.699219 42.5 C 40.699219 44.898438 44.300781 44.898438 44.300781 42.5 Z "/>
</g>
</svg>
